<?xml version="1.0" encoding="UTF-8"?>
<svg width="24px" height="24px" viewBox="0 0 24 24" version="1.1" xmlns="http://www.w3.org/2000/svg" xmlns:xlink="http://www.w3.org/1999/xlink">
    <title>Remove Special Characters</title>
    <g id="Page-1" stroke="none" stroke-width="1" fill="none" fill-rule="evenodd">
        <g id="remove-special-chars" fill="#000000" fill-rule="nonzero">
            <path d="M19,3 L5,3 C3.9,3 3,3.9 3,5 L3,19 C3,20.1 3.9,21 5,21 L19,21 C20.1,21 21,20.1 21,19 L21,5 C21,3.9 20.1,3 19,3 Z M19,19 L5,19 L5,5 L19,5 L19,19 Z" id="shape"></path>
            <path d="M10.8,17 L13.2,17 L13.2,7 L10.8,7 L10.8,17 Z M8.5,11 L15.5,11 L15.5,13 L8.5,13 L8.5,11 Z" id="delete"></path>
            <path d="M14.5,15.5 L17,13 L14.5,10.5 L16,9 L20,13 L16,17 L14.5,15.5 Z M9.5,15.5 L7,13 L9.5,10.5 L8,9 L4,13 L8,17 L9.5,15.5 Z" id="arrows"></path>
        </g>
    </g>
</svg>